<svg xmlns="http://www.w3.org/2000/svg" xmlns:xlink="http://www.w3.org/1999/xlink" width="97" height="97" viewBox="0 0 97 97" fill="none">
<g >
<path     fill="#006FFF"  d="M71.968 55.52L71.968 54.152Q71.968 45.44 70.456 44.288Q69.664 43.712 68.584 43.712Q67.504 43.712 66.928 43.964Q66.352 44.216 65.992 44.972Q65.632 45.728 65.416 46.376Q64.984 47.672 64.984 50.984L64.984 55.52Q64.984 61.496 65.38 63.692Q65.776 65.888 66.532 66.5Q67.288 67.112 68.656 67.112Q70.96 67.112 71.464 64.736Q71.968 62.36 71.968 55.52ZM82.984 37.808Q84.928 40.976 85.648 44.936Q86.368 48.896 86.368 54.836Q86.368 60.776 85.648 64.736Q84.928 68.696 82.984 71.792Q79.384 77.84 68.476 77.84Q57.568 77.84 53.896 71.792Q51.952 68.696 51.196 64.736Q50.44 60.776 50.44 54.872Q50.44 48.968 51.16 44.972Q51.88 40.976 53.824 37.808Q57.568 31.688 68.44 31.688Q79.312 31.688 82.984 37.808Z">
</path>
</g>
<path d="M11.4326 37.9189L9 20C9 20 17.4649 20.0064 24.677 24.9289L25.3607 21.3833L47 21.3833L47 76.2211L23.1983 76.2211L23.1983 40.0335C23.1983 40.0335 20.9056 38.8888 19.0167 38.8888L11.4962 38.4436L11.4326 37.9189Z"  style="mix-blend-mode:normal" fill="#006FFF" >
</path>
</svg>
