<svg xmlns="http://www.w3.org/2000/svg" xmlns:xlink="http://www.w3.org/1999/xlink" width="128" height="128" viewBox="0 0 128 128" fill="none">
<path    style="mix-blend-mode:normal" fill="#006FFF"  d="M25.05 17C29.874 17 35.78 17.36 35.78 17.36L34.62 28.66C29.724 28.228 29.04 28.23 29.04 28.23C28.356 28.23 28.36 28.95 28.36 28.95L28.36 30.18L34.48 30.18L33.69 39.9L28.5 39.9L28.5 63.66L13.46 63.66L13.46 39.9L10 39.9L10 30.18L13.46 30.18L13.46 26.72C13.46 17 25.05 17 25.05 17Z">
</path>
<path    style="mix-blend-mode:normal" fill="#006FFF"  d="M36.14 54.73L36.14 17.5L50.9 17.5L50.9 51.42C50.9 53.364 53.56 53.36 53.56 53.36L52.48 64.38L46.58 64.38C36.14 64.38 36.14 54.73 36.14 54.73Z">
</path>
<path    style="mix-blend-mode:normal" fill="#006FFF"  d="M66.81 64.38C56.586 64.38 56.58 54.58 56.58 54.58L56.58 29.17L71.7 29.17L71.7 51.78C71.7 52.932 72.75 52.93 72.75 52.93C73.794 52.93 75.52 52.21 75.52 52.21L75.52 29.17L90.57 29.17L90.57 63.51L76.17 63.51L76.17 61.71L75.74 61.71C71.564 64.374 66.81 64.38 66.81 64.38Z">
</path>
<path    style="mix-blend-mode:normal" fill="#006FFF"  d="M107.99 64.38C102.374 64.38 99.75 62.25 99.75 62.25C97.122 60.126 97.12 54.94 97.12 54.94L97.12 39.32L93.3 39.32L93.3 29.6L97.84 29.6L98.78 23.19L112.1 23.19L112.1 29.6L118.65 29.6L118.65 39.32L112.02 39.32L112.02 52.64C112.02 53.576 112.89 53.58 112.89 53.58C112.962 53.58 118.58 53.29 118.58 53.29L118.14 63.66C110.94 64.38 107.99 64.38 107.99 64.38Z">
</path>
<path    style="mix-blend-mode:normal" fill="#006FFF"  d="M31.45 111.61C25.834 111.61 23.21 109.48 23.21 109.48C20.582 107.356 20.58 102.17 20.58 102.17L20.58 86.55L16.77 86.55L16.77 76.83L21.3 76.83L22.24 70.42L35.56 70.42L35.56 76.83L42.11 76.83L42.11 86.55L35.49 86.55L35.49 99.87C35.49 100.806 36.35 100.81 36.35 100.81C36.422 100.81 42.04 100.52 42.04 100.52L41.61 110.89C34.41 111.61 31.45 111.61 31.45 111.61Z">
</path>
<path    style="mix-blend-mode:normal" fill="#006FFF"  d="M61.62 87.13C60.108 87.13 59.53 88.06 59.53 88.06C58.954 88.996 58.96 90.94 58.96 90.94L64.14 90.94L64.14 89.79C64.14 87.126 61.62 87.13 61.62 87.13ZM44.13 93.53L44.13 89.25C44.13 84.966 48.63 80.25 48.63 80.25C53.13 75.534 61.87 75.53 61.87 75.53C70.618 75.53 74.26 79.13 74.26 79.13C77.896 82.73 77.89 89.43 77.89 89.43C77.89 92.094 77.32 97.49 77.32 97.49L59.25 97.49C59.538 101.378 64 101.38 64 101.38C66.088 101.38 74.94 99.87 74.94 99.87L76.17 109.59C68.538 111.606 61.91 111.61 61.91 111.61C53.27 111.61 48.7 106.85 48.7 106.85C44.128 102.098 44.13 93.53 44.13 93.53Z">
</path>
<path    style="mix-blend-mode:normal" fill="#006FFF"  d="M103.96 87.13L105.49 75.86C105.49 75.86 100.166 75.864 95.63 78.96L95.2 76.73L81.59 76.73L81.59 111.22L96.56 111.22L96.56 88.46C96.56 88.46 98.002 87.74 99.19 87.74L103.92 87.46L103.96 87.13Z">
</path>
<path    style="mix-blend-mode:normal" fill="#4D9AFF"  d="M105.49 75.86L103.96 87.13L103.92 87.46L99.19 87.74C99.19 87.74 100.38 87.748 100.38 88.9L100.38 111.22L115.57 111.22L115.57 85.66C115.57 85.66 115.57 75.86 105.49 75.86Z">
</path>
</svg>
